<mxfile host="app.diagrams.net" modified="2022-12-02T13:43:54.058Z" agent="5.0 (Windows NT 10.0; Win64; x64) AppleWebKit/537.36 (KHTML, like Gecko) Chrome/107.0.0.0 Safari/537.36" etag="U424lnAnWZC8k0Lv_V_x" version="20.6.0" type="github">
  <diagram id="07fea595-8f29-1299-0266-81d95cde20df" name="Page-1">
    <mxGraphModel dx="1038" dy="528" grid="1" gridSize="10" guides="1" tooltips="1" connect="1" arrows="1" fold="1" page="1" pageScale="1" pageWidth="1169" pageHeight="827" background="#ffffff" math="0" shadow="0">
      <root>
        <mxCell id="0" />
        <mxCell id="1" parent="0" />
        <mxCell id="170" value="&lt;font color=&quot;#23497d&quot;&gt;Local Dev Environment&lt;/font&gt;" style="swimlane;whiteSpace=wrap;fillColor=none;swimlaneFillColor=#BAC8D3;fontColor=#2F5B7C;fontFamily=Tahoma;html=1;strokeColor=none;opacity=50;" parent="1" vertex="1">
          <mxGeometry x="24.5" y="88.5" width="160" height="650" as="geometry">
            <mxRectangle x="20" y="20" width="80" height="23" as="alternateBounds" />
          </mxGeometry>
        </mxCell>
        <mxCell id="171" value="Frontend" style="whiteSpace=wrap;shadow=0;fontColor=#FFFFFF;fontFamily=Helvetica;fontStyle=0;html=1;fontSize=12;plain-purple;strokeColor=none;fillColor=#2f5b7c;gradientColor=none;spacing=6;verticalAlign=middle;" parent="170" vertex="1">
          <mxGeometry x="20" y="101.5" width="120" height="60" as="geometry" />
        </mxCell>
        <mxCell id="173" value="QA" style="whiteSpace=wrap;strokeColor=none;fillColor=#2f5b7c;shadow=0;fontColor=#FFFFFF;fontFamily=Helvetica;fontStyle=0;html=1;fontSize=12;spacing=6;verticalAlign=middle;" parent="170" vertex="1">
          <mxGeometry x="20" y="521.5" width="120" height="60" as="geometry" />
        </mxCell>
        <mxCell id="SD03UMrJ5MH5QzKgJSNW-217" value="Backend" style="whiteSpace=wrap;shadow=0;fontColor=#FFFFFF;fontFamily=Helvetica;fontStyle=0;html=1;fontSize=12;plain-purple;strokeColor=none;fillColor=#2f5b7c;gradientColor=none;spacing=6;verticalAlign=middle;" parent="170" vertex="1">
          <mxGeometry x="20" y="191.5" width="120" height="60" as="geometry" />
        </mxCell>
        <mxCell id="SD03UMrJ5MH5QzKgJSNW-218" value="DevOPS" style="whiteSpace=wrap;shadow=0;fontColor=#FFFFFF;fontFamily=Helvetica;fontStyle=0;html=1;fontSize=12;plain-purple;strokeColor=none;fillColor=#2f5b7c;gradientColor=none;spacing=6;verticalAlign=middle;" parent="170" vertex="1">
          <mxGeometry x="20" y="331.5" width="120" height="60" as="geometry" />
        </mxCell>
        <mxCell id="SD03UMrJ5MH5QzKgJSNW-244" value="" style="edgeStyle=segmentEdgeStyle;strokeColor=#2F5B7C;strokeWidth=3;html=1;endArrow=block;endFill=1;entryX=0;entryY=0.5;entryDx=0;entryDy=0;" parent="170" target="SD03UMrJ5MH5QzKgJSNW-229" edge="1">
          <mxGeometry x="-119" y="256.5" width="100" height="100" as="geometry">
            <mxPoint x="85.5" y="251.5" as="sourcePoint" />
            <mxPoint x="170" y="321.5" as="targetPoint" />
            <Array as="points">
              <mxPoint x="86" y="282" />
            </Array>
          </mxGeometry>
        </mxCell>
        <mxCell id="21aXrwI_mkBV2-uxIRin-232" value="" style="shape=image;html=1;verticalAlign=top;verticalLabelPosition=bottom;labelBackgroundColor=#ffffff;imageAspect=0;aspect=fixed;image=https://cdn4.iconfinder.com/data/icons/essential-3/32/356-Document_Code-128.png;strokeColor=#6c8ebf;fontFamily=Tahoma;fontSize=12;fontColor=default;startSize=23;fillColor=default;imageBackground=none;" vertex="1" parent="170">
          <mxGeometry x="11.5" y="35.5" width="37.5" height="37.5" as="geometry" />
        </mxCell>
        <mxCell id="180" value="&lt;font color=&quot;#23497d&quot;&gt;JIRA&lt;/font&gt;" style="swimlane;whiteSpace=wrap;swimlaneFillColor=#BAC8D3;fontFamily=Tahoma;html=1;opacity=25;startSize=23;fillColor=none;strokeColor=none;fontColor=#2F5B7C;" parent="1" vertex="1">
          <mxGeometry x="184.5" y="88.5" width="165.5" height="650" as="geometry">
            <mxRectangle x="20" y="20" width="80" height="23" as="alternateBounds" />
          </mxGeometry>
        </mxCell>
        <mxCell id="21aXrwI_mkBV2-uxIRin-222" value="" style="html=1;verticalLabelPosition=bottom;align=center;labelBackgroundColor=#ffffff;verticalAlign=top;strokeWidth=2;strokeColor=#0080F0;shadow=0;dashed=0;shape=mxgraph.ios7.icons.eye;fontFamily=Tahoma;fontSize=12;fontColor=default;startSize=23;fillColor=default;" vertex="1" parent="180">
          <mxGeometry x="115.5" y="371.5" width="38" height="17.1" as="geometry" />
        </mxCell>
        <mxCell id="21aXrwI_mkBV2-uxIRin-231" value="" style="image;image=img/lib/atlassian/Jira_Software_Logo.svg;strokeColor=#6c8ebf;fontFamily=Tahoma;fontSize=12;fontColor=default;startSize=23;fillColor=default;html=1;" vertex="1" parent="180">
          <mxGeometry x="12" y="31.5" width="48.5" height="48.5" as="geometry" />
        </mxCell>
        <mxCell id="21aXrwI_mkBV2-uxIRin-233" value="" style="html=1;verticalLabelPosition=bottom;align=center;labelBackgroundColor=#ffffff;verticalAlign=top;strokeWidth=2;strokeColor=#0080F0;shadow=0;dashed=0;shape=mxgraph.ios7.icons.eye;fontFamily=Tahoma;fontSize=12;fontColor=default;startSize=23;fillColor=default;" vertex="1" parent="180">
          <mxGeometry x="115.5" y="251.5" width="38" height="17.1" as="geometry" />
        </mxCell>
        <mxCell id="21aXrwI_mkBV2-uxIRin-234" value="" style="html=1;verticalLabelPosition=bottom;align=center;labelBackgroundColor=#ffffff;verticalAlign=top;strokeWidth=2;strokeColor=#0080F0;shadow=0;dashed=0;shape=mxgraph.ios7.icons.eye;fontFamily=Tahoma;fontSize=12;fontColor=default;startSize=23;fillColor=default;" vertex="1" parent="180">
          <mxGeometry x="115.5" y="111.5" width="38" height="17.1" as="geometry" />
        </mxCell>
        <mxCell id="21aXrwI_mkBV2-uxIRin-250" value="" style="group" vertex="1" connectable="0" parent="180">
          <mxGeometry x="13.75" y="451.5" width="138" height="170" as="geometry" />
        </mxCell>
        <mxCell id="21aXrwI_mkBV2-uxIRin-237" value="Task description" style="html=1;shadow=0;dashed=0;shape=mxgraph.atlassian.issue;issueType=story;issuePriority=blocker;issueStatus=inProgress;verticalAlign=top;align=left;whiteSpace=wrap;overflow=hidden;spacingTop=25;strokeColor=#A8ADB0;fillColor=#EEEEEE;fontSize=12;backgroundOutline=1;sketch=0;fontFamily=Tahoma;fontColor=default;startSize=23;opacity=50;" vertex="1" parent="21aXrwI_mkBV2-uxIRin-250">
          <mxGeometry y="60" width="138" height="50" as="geometry" />
        </mxCell>
        <mxCell id="21aXrwI_mkBV2-uxIRin-238" value="ID" style="strokeColor=none;fillColor=none;part=1;resizable=0;align=left;autosize=1;points=[];deletable=0;connectable=0;fontFamily=Tahoma;fontSize=12;fontColor=default;startSize=23;opacity=50;html=1;" vertex="1" parent="21aXrwI_mkBV2-uxIRin-237">
          <mxGeometry width="60" height="20" relative="1" as="geometry">
            <mxPoint x="20" as="offset" />
          </mxGeometry>
        </mxCell>
        <mxCell id="21aXrwI_mkBV2-uxIRin-240" value="Task description" style="html=1;shadow=0;dashed=0;shape=mxgraph.atlassian.issue;issueType=story;issuePriority=blocker;issueStatus=inProgress;verticalAlign=top;align=left;whiteSpace=wrap;overflow=hidden;spacingTop=25;strokeColor=#A8ADB0;fillColor=#EEEEEE;fontSize=12;backgroundOutline=1;sketch=0;fontFamily=Tahoma;fontColor=default;startSize=23;opacity=50;" vertex="1" parent="21aXrwI_mkBV2-uxIRin-250">
          <mxGeometry y="120" width="138" height="50" as="geometry" />
        </mxCell>
        <mxCell id="21aXrwI_mkBV2-uxIRin-241" value="ID" style="strokeColor=none;fillColor=none;part=1;resizable=0;align=left;autosize=1;points=[];deletable=0;connectable=0;fontFamily=Tahoma;fontSize=12;fontColor=default;startSize=23;opacity=50;html=1;" vertex="1" parent="21aXrwI_mkBV2-uxIRin-240">
          <mxGeometry width="60" height="20" relative="1" as="geometry">
            <mxPoint x="20" as="offset" />
          </mxGeometry>
        </mxCell>
        <mxCell id="21aXrwI_mkBV2-uxIRin-242" value="Task description" style="html=1;shadow=0;dashed=0;shape=mxgraph.atlassian.issue;issueType=story;issuePriority=blocker;issueStatus=inProgress;verticalAlign=top;align=left;whiteSpace=wrap;overflow=hidden;spacingTop=25;strokeColor=#A8ADB0;fillColor=#EEEEEE;fontSize=12;backgroundOutline=1;sketch=0;fontFamily=Tahoma;fontColor=default;startSize=23;opacity=50;" vertex="1" parent="21aXrwI_mkBV2-uxIRin-250">
          <mxGeometry width="138" height="50" as="geometry" />
        </mxCell>
        <mxCell id="21aXrwI_mkBV2-uxIRin-243" value="ID" style="strokeColor=none;fillColor=none;part=1;resizable=0;align=left;autosize=1;points=[];deletable=0;connectable=0;fontFamily=Tahoma;fontSize=12;fontColor=default;startSize=23;opacity=50;html=1;" vertex="1" parent="21aXrwI_mkBV2-uxIRin-242">
          <mxGeometry width="60" height="20" relative="1" as="geometry">
            <mxPoint x="20" as="offset" />
          </mxGeometry>
        </mxCell>
        <mxCell id="183" value="&lt;font color=&quot;#23497d&quot;&gt;Github&lt;/font&gt;" style="swimlane;whiteSpace=wrap;fillColor=none;swimlaneFillColor=#BAC8D3;fontColor=#2F5B7C;fontFamily=Tahoma;html=1;strokeColor=none;opacity=50;" parent="1" vertex="1">
          <mxGeometry x="350" y="88.5" width="160" height="650" as="geometry">
            <mxRectangle x="20" y="20" width="80" height="23" as="alternateBounds" />
          </mxGeometry>
        </mxCell>
        <mxCell id="SD03UMrJ5MH5QzKgJSNW-221" value="" style="group" parent="183" vertex="1" connectable="0">
          <mxGeometry x="20" y="401.5" width="134.3" height="118.5" as="geometry" />
        </mxCell>
        <mxCell id="185" value="Infrastructure repository&lt;br&gt; " style="shape=document;whiteSpace=wrap;verticalAlign=middle;strokeColor=none;fillColor=#12aab5;shadow=0;fontColor=#FFFFFF;fontFamily=Helvetica;fontStyle=0;html=1;fontSize=12;spacing=6;spacingBottom=22;" parent="SD03UMrJ5MH5QzKgJSNW-221" vertex="1">
          <mxGeometry width="120" height="80" as="geometry" />
        </mxCell>
        <mxCell id="SD03UMrJ5MH5QzKgJSNW-220" value="Terraform" style="ellipse;whiteSpace=wrap;html=1;fillColor=#d5e8d4;strokeColor=#82b366;" parent="SD03UMrJ5MH5QzKgJSNW-221" vertex="1">
          <mxGeometry x="60" y="66.5" width="60" height="40" as="geometry" />
        </mxCell>
        <mxCell id="21aXrwI_mkBV2-uxIRin-228" value="" style="verticalLabelPosition=bottom;html=1;verticalAlign=top;align=center;strokeColor=none;fillColor=#FFFFFF;shape=mxgraph.azure.git_repository;fontFamily=Tahoma;fontSize=12;fontColor=default;startSize=23;" vertex="1" parent="SD03UMrJ5MH5QzKgJSNW-221">
          <mxGeometry x="15.5" y="45" width="34.5" height="28.5" as="geometry" />
        </mxCell>
        <mxCell id="SD03UMrJ5MH5QzKgJSNW-231" value="" style="shape=image;html=1;verticalLabelPosition=bottom;verticalAlign=top;imageAspect=1;aspect=fixed;image=img/clipart/Gear_128x128.png" parent="SD03UMrJ5MH5QzKgJSNW-221" vertex="1">
          <mxGeometry x="110" y="90" width="24.3" height="28.5" as="geometry" />
        </mxCell>
        <mxCell id="SD03UMrJ5MH5QzKgJSNW-222" value="" style="group" parent="183" vertex="1" connectable="0">
          <mxGeometry x="20" y="101.5" width="120" height="106.5" as="geometry" />
        </mxCell>
        <mxCell id="SD03UMrJ5MH5QzKgJSNW-223" value="Code repository&lt;br&gt; " style="shape=document;whiteSpace=wrap;verticalAlign=middle;strokeColor=none;fillColor=#12aab5;shadow=0;fontColor=#FFFFFF;fontFamily=Helvetica;fontStyle=0;html=1;fontSize=12;spacing=6;spacingBottom=22;" parent="SD03UMrJ5MH5QzKgJSNW-222" vertex="1">
          <mxGeometry width="120" height="80" as="geometry" />
        </mxCell>
        <mxCell id="SD03UMrJ5MH5QzKgJSNW-224" value="GH Actions" style="ellipse;whiteSpace=wrap;html=1;fillColor=#e1d5e7;strokeColor=#9673a6;" parent="SD03UMrJ5MH5QzKgJSNW-222" vertex="1">
          <mxGeometry x="60" y="66.5" width="60" height="40" as="geometry" />
        </mxCell>
        <mxCell id="21aXrwI_mkBV2-uxIRin-226" value="" style="verticalLabelPosition=bottom;html=1;verticalAlign=top;align=center;strokeColor=none;fillColor=#FFFFFF;shape=mxgraph.azure.git_repository;fontFamily=Tahoma;fontSize=12;fontColor=default;startSize=23;" vertex="1" parent="SD03UMrJ5MH5QzKgJSNW-222">
          <mxGeometry x="14.5" y="46" width="34.5" height="28.5" as="geometry" />
        </mxCell>
        <mxCell id="SD03UMrJ5MH5QzKgJSNW-228" value="" style="group" parent="183" vertex="1" connectable="0">
          <mxGeometry x="20" y="241.5" width="120" height="106.5" as="geometry" />
        </mxCell>
        <mxCell id="SD03UMrJ5MH5QzKgJSNW-229" value="Code repository&lt;br&gt; " style="shape=document;whiteSpace=wrap;verticalAlign=middle;strokeColor=none;fillColor=#12aab5;shadow=0;fontColor=#FFFFFF;fontFamily=Helvetica;fontStyle=0;html=1;fontSize=12;spacing=6;spacingBottom=22;" parent="SD03UMrJ5MH5QzKgJSNW-228" vertex="1">
          <mxGeometry width="120" height="80" as="geometry" />
        </mxCell>
        <mxCell id="SD03UMrJ5MH5QzKgJSNW-230" value="GH Actions" style="ellipse;whiteSpace=wrap;html=1;fillColor=#e1d5e7;strokeColor=#9673a6;" parent="SD03UMrJ5MH5QzKgJSNW-228" vertex="1">
          <mxGeometry x="60" y="66.5" width="60" height="40" as="geometry" />
        </mxCell>
        <mxCell id="21aXrwI_mkBV2-uxIRin-227" value="" style="verticalLabelPosition=bottom;html=1;verticalAlign=top;align=center;strokeColor=none;fillColor=#FFFFFF;shape=mxgraph.azure.git_repository;fontFamily=Tahoma;fontSize=12;fontColor=default;startSize=23;" vertex="1" parent="SD03UMrJ5MH5QzKgJSNW-228">
          <mxGeometry x="15.5" y="45" width="34.5" height="28.5" as="geometry" />
        </mxCell>
        <mxCell id="21aXrwI_mkBV2-uxIRin-230" value="" style="verticalLabelPosition=bottom;html=1;verticalAlign=top;align=center;strokeColor=none;fillColor=#00BEF2;shape=mxgraph.azure.github_code;pointerEvents=1;fontFamily=Tahoma;fontSize=12;fontColor=default;startSize=23;" vertex="1" parent="183">
          <mxGeometry x="5.5" y="31.5" width="40.5" height="39.5" as="geometry" />
        </mxCell>
        <mxCell id="21aXrwI_mkBV2-uxIRin-254" value="" style="shape=image;html=1;verticalLabelPosition=bottom;verticalAlign=top;imageAspect=1;aspect=fixed;image=img/clipart/Gear_128x128.png" vertex="1" parent="183">
          <mxGeometry x="100" y="361.5" width="24.3" height="28.5" as="geometry" />
        </mxCell>
        <mxCell id="193" value="&lt;font color=&quot;#23497d&quot;&gt;Docker Hub&lt;/font&gt;" style="swimlane;whiteSpace=wrap;fillColor=none;swimlaneFillColor=#BAC8D3;fontColor=#2F5B7C;fontFamily=Tahoma;html=1;strokeColor=none;opacity=25;" parent="1" vertex="1">
          <mxGeometry x="510" y="89" width="160" height="650" as="geometry">
            <mxRectangle x="20" y="20" width="80" height="23" as="alternateBounds" />
          </mxGeometry>
        </mxCell>
        <mxCell id="21aXrwI_mkBV2-uxIRin-223" value="" style="sketch=0;aspect=fixed;html=1;points=[];align=center;image;fontSize=12;image=img/lib/mscae/Docker.svg;strokeColor=#6c8ebf;fontFamily=Tahoma;fontColor=default;startSize=23;fillColor=default;" vertex="1" parent="193">
          <mxGeometry x="5.5" y="31" width="50" height="41" as="geometry" />
        </mxCell>
        <mxCell id="210" value="" style="edgeStyle=segmentEdgeStyle;strokeColor=#12AAB5;strokeWidth=3;html=1;endArrow=block;endFill=1;exitX=1;exitY=0.5;exitDx=0;exitDy=0;" parent="1" source="SD03UMrJ5MH5QzKgJSNW-220" target="SD03UMrJ5MH5QzKgJSNW-232" edge="1">
          <mxGeometry x="404.5" y="393.5" width="100" height="100" as="geometry">
            <mxPoint x="330" y="576" as="sourcePoint" />
            <mxPoint x="624.5" y="388.5" as="targetPoint" />
            <Array as="points">
              <mxPoint x="650" y="577" />
              <mxPoint x="650" y="438" />
            </Array>
          </mxGeometry>
        </mxCell>
        <mxCell id="207" value="" style="edgeStyle=segmentEdgeStyle;strokeColor=#2F5B7C;strokeWidth=3;html=1;endArrow=block;endFill=1;entryX=0.5;entryY=0;entryDx=0;entryDy=0;exitX=1;exitY=0.5;exitDx=0;exitDy=0;" parent="1" target="185" edge="1" source="SD03UMrJ5MH5QzKgJSNW-218">
          <mxGeometry x="320" y="513.5" width="100" height="100" as="geometry">
            <mxPoint x="320" y="450" as="sourcePoint" />
            <mxPoint x="420" y="545" as="targetPoint" />
            <Array as="points" />
          </mxGeometry>
        </mxCell>
        <mxCell id="SD03UMrJ5MH5QzKgJSNW-245" value="" style="strokeColor=#2F5B7C;strokeWidth=3;html=1;endArrow=block;endFill=1;entryX=0;entryY=0.5;entryDx=0;entryDy=0;exitX=0.652;exitY=0.998;exitDx=0;exitDy=0;exitPerimeter=0;edgeStyle=orthogonalEdgeStyle;" parent="1" target="SD03UMrJ5MH5QzKgJSNW-223" edge="1" source="171">
          <mxGeometry x="-119" y="125" width="100" height="100" as="geometry">
            <mxPoint x="110" y="208.5" as="sourcePoint" />
            <mxPoint x="204.5" y="238.5" as="targetPoint" />
            <Array as="points">
              <mxPoint x="123" y="270" />
              <mxPoint x="265" y="270" />
              <mxPoint x="265" y="230" />
            </Array>
          </mxGeometry>
        </mxCell>
        <mxCell id="187" value="&lt;span style=&quot;color: rgb(35, 73, 125);&quot;&gt;AWS Cloud&lt;/span&gt;" style="swimlane;whiteSpace=wrap;fillColor=none;swimlaneFillColor=#BAC8D3;fontColor=#2F5B7C;fontFamily=Tahoma;html=1;strokeColor=none;opacity=50;strokeWidth=1;" parent="1" vertex="1">
          <mxGeometry x="669.5" y="88" width="245.5" height="648.5" as="geometry">
            <mxRectangle x="20" y="20" width="80" height="23" as="alternateBounds" />
          </mxGeometry>
        </mxCell>
        <mxCell id="SD03UMrJ5MH5QzKgJSNW-242" value="" style="rounded=1;arcSize=10;dashed=0;fillColor=none;gradientColor=none;strokeWidth=2;" parent="187" vertex="1">
          <mxGeometry x="46" y="310.5" width="150" height="160" as="geometry" />
        </mxCell>
        <mxCell id="SD03UMrJ5MH5QzKgJSNW-232" value="" style="rounded=1;arcSize=10;dashed=0;fillColor=none;gradientColor=none;strokeWidth=1;" parent="187" vertex="1">
          <mxGeometry x="20.5" y="40" width="200" height="470" as="geometry" />
        </mxCell>
        <mxCell id="SD03UMrJ5MH5QzKgJSNW-233" value="" style="dashed=0;html=1;shape=mxgraph.aws3.virtual_private_cloud;fillColor=#F58536;gradientColor=none;dashed=0;" parent="187" vertex="1">
          <mxGeometry x="35.5" y="50" width="44.5" height="30" as="geometry" />
        </mxCell>
        <mxCell id="21aXrwI_mkBV2-uxIRin-261" style="edgeStyle=orthogonalEdgeStyle;rounded=1;orthogonalLoop=1;jettySize=auto;html=1;entryX=0;entryY=0.5;entryDx=0;entryDy=0;entryPerimeter=0;fontFamily=Helvetica;fontSize=11;fontColor=default;startSize=23;exitX=0.5;exitY=1;exitDx=0;exitDy=0;exitPerimeter=0;endArrow=block;strokeColor=#2F5B7C;strokeWidth=3;endFill=1;" edge="1" parent="187" source="SD03UMrJ5MH5QzKgJSNW-237" target="SD03UMrJ5MH5QzKgJSNW-238">
          <mxGeometry relative="1" as="geometry" />
        </mxCell>
        <mxCell id="SD03UMrJ5MH5QzKgJSNW-237" value="&lt;b&gt;Frontend&lt;/b&gt;" style="outlineConnect=0;dashed=0;verticalLabelPosition=bottom;verticalAlign=top;align=center;html=1;shape=mxgraph.aws3.ec2;fillColor=#F58534;gradientColor=none;strokeWidth=1;" parent="187" vertex="1">
          <mxGeometry x="45.5" y="130" width="54.5" height="60" as="geometry" />
        </mxCell>
        <mxCell id="21aXrwI_mkBV2-uxIRin-259" style="edgeStyle=orthogonalEdgeStyle;rounded=1;orthogonalLoop=1;jettySize=auto;html=1;entryX=1;entryY=0.5;entryDx=0;entryDy=0;entryPerimeter=0;fontFamily=Helvetica;fontSize=11;fontColor=default;startSize=23;endArrow=block;strokeColor=#2F5B7C;strokeWidth=3;endFill=1;" edge="1" parent="187" source="SD03UMrJ5MH5QzKgJSNW-238" target="SD03UMrJ5MH5QzKgJSNW-239">
          <mxGeometry relative="1" as="geometry">
            <Array as="points">
              <mxPoint x="211" y="242" />
              <mxPoint x="211" y="402" />
            </Array>
          </mxGeometry>
        </mxCell>
        <mxCell id="21aXrwI_mkBV2-uxIRin-260" style="edgeStyle=orthogonalEdgeStyle;rounded=1;orthogonalLoop=1;jettySize=auto;html=1;entryX=1;entryY=0.5;entryDx=0;entryDy=0;entryPerimeter=0;fontFamily=Helvetica;fontSize=11;fontColor=default;startSize=23;exitX=0.5;exitY=0;exitDx=0;exitDy=0;exitPerimeter=0;endArrow=block;strokeColor=#2F5B7C;strokeWidth=3;endFill=1;" edge="1" parent="187" source="SD03UMrJ5MH5QzKgJSNW-238" target="SD03UMrJ5MH5QzKgJSNW-237">
          <mxGeometry relative="1" as="geometry" />
        </mxCell>
        <mxCell id="SD03UMrJ5MH5QzKgJSNW-238" value="&lt;b&gt;Backend&lt;/b&gt;" style="outlineConnect=0;dashed=0;verticalLabelPosition=bottom;verticalAlign=top;align=center;html=1;shape=mxgraph.aws3.ec2;fillColor=#F58534;gradientColor=none;strokeWidth=1;" parent="187" vertex="1">
          <mxGeometry x="143" y="212" width="54.5" height="60" as="geometry" />
        </mxCell>
        <mxCell id="21aXrwI_mkBV2-uxIRin-258" style="edgeStyle=orthogonalEdgeStyle;rounded=1;orthogonalLoop=1;jettySize=auto;html=1;entryX=0;entryY=0.5;entryDx=0;entryDy=0;entryPerimeter=0;fontFamily=Helvetica;fontSize=11;fontColor=default;startSize=23;endArrow=block;strokeColor=#2F5B7C;strokeWidth=3;endFill=1;" edge="1" parent="187" source="SD03UMrJ5MH5QzKgJSNW-239" target="SD03UMrJ5MH5QzKgJSNW-238">
          <mxGeometry relative="1" as="geometry" />
        </mxCell>
        <mxCell id="SD03UMrJ5MH5QzKgJSNW-239" value="&lt;b&gt;Database&lt;/b&gt;" style="outlineConnect=0;dashed=0;verticalLabelPosition=bottom;verticalAlign=top;align=center;html=1;shape=mxgraph.aws3.rds;fillColor=#2E73B8;gradientColor=none;strokeWidth=1;" parent="187" vertex="1">
          <mxGeometry x="86.75" y="361" width="72" height="81" as="geometry" />
        </mxCell>
        <mxCell id="SD03UMrJ5MH5QzKgJSNW-243" value="" style="dashed=0;html=1;shape=mxgraph.aws3.permissions;fillColor=#D9A741;gradientColor=none;dashed=0;strokeWidth=1;" parent="187" vertex="1">
          <mxGeometry x="61" y="290.5" width="30" height="35" as="geometry" />
        </mxCell>
        <mxCell id="21aXrwI_mkBV2-uxIRin-256" value="" style="sketch=0;outlineConnect=0;fontColor=#232F3E;gradientColor=none;fillColor=#3F8624;strokeColor=none;dashed=0;verticalLabelPosition=bottom;verticalAlign=top;align=center;html=1;fontSize=12;fontStyle=0;aspect=fixed;pointerEvents=1;shape=mxgraph.aws4.iot_greengrass_interprocess_communication;fontFamily=Tahoma;startSize=23;" vertex="1" parent="187">
          <mxGeometry x="103" y="182" width="39" height="39" as="geometry" />
        </mxCell>
        <mxCell id="21aXrwI_mkBV2-uxIRin-257" value="" style="sketch=0;outlineConnect=0;fontColor=#232F3E;gradientColor=none;fillColor=#3F8624;strokeColor=none;dashed=0;verticalLabelPosition=bottom;verticalAlign=top;align=center;html=1;fontSize=12;fontStyle=0;aspect=fixed;pointerEvents=1;shape=mxgraph.aws4.iot_greengrass_interprocess_communication;fontFamily=Tahoma;startSize=23;" vertex="1" parent="187">
          <mxGeometry x="142" y="322" width="39" height="39" as="geometry" />
        </mxCell>
        <mxCell id="21aXrwI_mkBV2-uxIRin-219" value="" style="aspect=fixed;html=1;points=[];align=center;image;fontSize=12;image=img/lib/azure2/general/Management_Portal.svg;strokeColor=#6c8ebf;fontFamily=Tahoma;fontColor=default;startSize=23;fillColor=default;" vertex="1" parent="1">
          <mxGeometry x="970" y="240" width="110" height="88" as="geometry" />
        </mxCell>
        <mxCell id="21aXrwI_mkBV2-uxIRin-224" value="" style="shape=image;html=1;verticalAlign=top;verticalLabelPosition=bottom;labelBackgroundColor=#ffffff;imageAspect=0;aspect=fixed;image=https://cdn0.iconfinder.com/data/icons/eon-social-media-contact-info-2/32/world_www_web_website-128.png;strokeColor=#6c8ebf;fontFamily=Tahoma;fontSize=12;fontColor=default;startSize=23;fillColor=default;" vertex="1" parent="1">
          <mxGeometry x="931.5" y="129" width="55" height="55" as="geometry" />
        </mxCell>
        <mxCell id="21aXrwI_mkBV2-uxIRin-247" style="edgeStyle=orthogonalEdgeStyle;rounded=1;orthogonalLoop=1;jettySize=auto;html=1;entryX=0.5;entryY=1;entryDx=0;entryDy=0;fontFamily=Helvetica;fontSize=11;fontColor=default;startSize=23;exitX=0.5;exitY=1;exitDx=0;exitDy=0;endArrow=block;strokeColor=#2F5B7C;strokeWidth=3;endFill=1;" edge="1" parent="1" source="173" target="21aXrwI_mkBV2-uxIRin-240">
          <mxGeometry relative="1" as="geometry" />
        </mxCell>
        <mxCell id="21aXrwI_mkBV2-uxIRin-251" style="edgeStyle=orthogonalEdgeStyle;rounded=1;orthogonalLoop=1;jettySize=auto;html=1;entryX=0.5;entryY=1;entryDx=0;entryDy=0;fontFamily=Helvetica;fontSize=11;fontColor=default;startSize=23;endArrow=block;strokeColor=#2F5B7C;strokeWidth=3;endFill=1;" edge="1" parent="1" source="21aXrwI_mkBV2-uxIRin-242" target="SD03UMrJ5MH5QzKgJSNW-218">
          <mxGeometry relative="1" as="geometry" />
        </mxCell>
        <mxCell id="21aXrwI_mkBV2-uxIRin-252" style="edgeStyle=orthogonalEdgeStyle;rounded=1;orthogonalLoop=1;jettySize=auto;html=1;entryX=0;entryY=0.5;entryDx=0;entryDy=0;fontFamily=Helvetica;fontSize=11;fontColor=default;startSize=23;endArrow=block;strokeColor=#2F5B7C;strokeWidth=3;endFill=1;" edge="1" parent="1" source="21aXrwI_mkBV2-uxIRin-242" target="SD03UMrJ5MH5QzKgJSNW-217">
          <mxGeometry relative="1" as="geometry" />
        </mxCell>
        <mxCell id="21aXrwI_mkBV2-uxIRin-253" style="edgeStyle=orthogonalEdgeStyle;rounded=1;orthogonalLoop=1;jettySize=auto;html=1;entryX=0;entryY=0.5;entryDx=0;entryDy=0;fontFamily=Helvetica;fontSize=11;fontColor=default;startSize=23;endArrow=block;strokeColor=#2F5B7C;strokeWidth=3;endFill=1;" edge="1" parent="1" source="21aXrwI_mkBV2-uxIRin-242" target="171">
          <mxGeometry relative="1" as="geometry" />
        </mxCell>
      </root>
    </mxGraphModel>
  </diagram>
</mxfile>
